<svg xmlns="http://www.w3.org/2000/svg" viewBox="0 0 45.88 32.75"><defs><style>.cls-1{fill:silver;}</style></defs><g id="Layer_2" data-name="Layer 2"><g id="Layer_1-2" data-name="Layer 1"><path class="cls-1" d="M.2,31.17v1.57H0V31.17Z"/><path class="cls-1" d="M2.9,32.74H2.7l-.82-1.25v1.25H1.67V31.17h.21l.82,1.24V31.17h.2Z"/><path class="cls-1" d="M5.3,31.27a.63.63,0,0,1,.29.27.82.82,0,0,1,.1.42.76.76,0,0,1-.1.41.63.63,0,0,1-.29.27,1,1,0,0,1-.44.1H4.37V31.17h.49A.87.87,0,0,1,5.3,31.27Zm0,1.14A.61.61,0,0,0,5.48,32a.56.56,0,0,0-.62-.62H4.58v1.23h.28A.64.64,0,0,0,5.32,32.41Z"/><path class="cls-1" d="M7.28,31.17v1a.46.46,0,0,0,.1.31.39.39,0,0,0,.29.1.37.37,0,0,0,.28-.1.41.41,0,0,0,.1-.31v-1h.21v1a.67.67,0,0,1-.08.33.6.6,0,0,1-.22.2.65.65,0,0,1-.29.06.67.67,0,0,1-.3-.06.6.6,0,0,1-.22-.2.67.67,0,0,1-.07-.33v-1Z"/><path class="cls-1" d="M9.94,32.7a.43.43,0,0,1-.19-.16.35.35,0,0,1-.08-.22h.22a.31.31,0,0,0,.09.18.34.34,0,0,0,.23.08.37.37,0,0,0,.23-.07.25.25,0,0,0,0-.34.32.32,0,0,0-.12-.08l-.2-.07a.92.92,0,0,1-.25-.08.38.38,0,0,1-.16-.12.36.36,0,0,1-.07-.24.34.34,0,0,1,.07-.22.4.4,0,0,1,.18-.16.76.76,0,0,1,.27-.05.57.57,0,0,1,.36.11.41.41,0,0,1,.16.29h-.23a.21.21,0,0,0-.09-.16.36.36,0,0,0-.22-.06.37.37,0,0,0-.21.06.26.26,0,0,0-.08.19.24.24,0,0,0,0,.14.36.36,0,0,0,.12.08l.2.06.25.09a.45.45,0,0,1,.16.12.43.43,0,0,1,.06.24.37.37,0,0,1-.06.21.42.42,0,0,1-.18.17.58.58,0,0,1-.28.06A.76.76,0,0,1,9.94,32.7Z"/><path class="cls-1" d="M13.12,31.17v.17h-.43v1.4h-.2v-1.4h-.43v-.17Z"/><path class="cls-1" d="M15.32,32.74l-.38-.64H14.7v.64h-.21V31.17H15a.67.67,0,0,1,.3.06.42.42,0,0,1,.18.17.41.41,0,0,1,.06.23.5.5,0,0,1-.09.29.49.49,0,0,1-.28.16l.39.66Zm-.62-.81H15a.37.37,0,0,0,.25-.08.31.31,0,0,0,.08-.22.29.29,0,0,0-.08-.21.37.37,0,0,0-.25-.08h-.3Z"/><path class="cls-1" d="M17.18,31.17v1.57H17V31.17Z"/><path class="cls-1" d="M19.58,32.39H18.9l-.13.35h-.21l.56-1.56h.24l.56,1.56H19.7Zm-.06-.17-.28-.79-.29.79Z"/><path class="cls-1" d="M21.49,32.57H22v.17h-.75V31.17h.2Z"/><path class="cls-1" d="M25.32,32.7a.43.43,0,0,1-.19-.16.34.34,0,0,1-.07-.22h.21a.31.31,0,0,0,.09.18.35.35,0,0,0,.24.08.42.42,0,0,0,.23-.07.27.27,0,0,0,.08-.19.25.25,0,0,0-.05-.15.25.25,0,0,0-.12-.08l-.2-.07a.92.92,0,0,1-.25-.08.38.38,0,0,1-.16-.12.43.43,0,0,1-.07-.24.41.41,0,0,1,.07-.22.4.4,0,0,1,.18-.16.76.76,0,0,1,.27-.05.57.57,0,0,1,.36.11.37.37,0,0,1,.16.29h-.22a.26.26,0,0,0-.1-.16.36.36,0,0,0-.22-.06.37.37,0,0,0-.21.06.26.26,0,0,0-.08.19.24.24,0,0,0,.05.14.36.36,0,0,0,.12.08l.2.06.25.09a.45.45,0,0,1,.16.12.43.43,0,0,1,.07.24.37.37,0,0,1-.06.21.42.42,0,0,1-.18.17.64.64,0,0,1-.28.06A.78.78,0,0,1,25.32,32.7Z"/><path class="cls-1" d="M27.85,32.65a.71.71,0,0,1-.28-.29.82.82,0,0,1,0-.82.69.69,0,0,1,.28-.28.78.78,0,0,1,.8,0,.69.69,0,0,1,.28.28A.8.8,0,0,1,29,32a.78.78,0,0,1-.1.41.71.71,0,0,1-.28.29.85.85,0,0,1-.8,0Zm.69-.15a.56.56,0,0,0,.21-.22.67.67,0,0,0,.08-.33.73.73,0,0,0-.08-.33.53.53,0,0,0-.21-.21.55.55,0,0,0-.29-.08.61.61,0,0,0-.3.08.58.58,0,0,0-.2.21.73.73,0,0,0-.08.33.67.67,0,0,0,.08.33.51.51,0,0,0,.5.29A.54.54,0,0,0,28.54,32.5Z"/><path class="cls-1" d="M30.63,32.57h.55v.17h-.75V31.17h.2Z"/><path class="cls-1" d="M32.72,31.17v1a.41.41,0,0,0,.1.31.37.37,0,0,0,.28.1.36.36,0,0,0,.28-.1.42.42,0,0,0,.11-.31v-1h.2v1a.67.67,0,0,1-.08.33.51.51,0,0,1-.21.2.78.78,0,0,1-.6,0,.51.51,0,0,1-.21-.2.67.67,0,0,1-.08-.33v-1Z"/><path class="cls-1" d="M36.12,31.17v.17h-.43v1.4h-.2v-1.4h-.43v-.17Z"/><path class="cls-1" d="M37.69,31.17v1.57h-.2V31.17Z"/><path class="cls-1" d="M39.48,32.65a.74.74,0,0,1-.29-.29.89.89,0,0,1,0-.82.71.71,0,0,1,.29-.28.74.74,0,0,1,.39-.11.77.77,0,0,1,.4.11.63.63,0,0,1,.28.28.81.81,0,0,1,.11.41.78.78,0,0,1-.11.41.65.65,0,0,1-.28.29.77.77,0,0,1-.4.1A.73.73,0,0,1,39.48,32.65Zm.69-.15a.61.61,0,0,0,.2-.22.67.67,0,0,0,.08-.33.73.73,0,0,0-.08-.33.51.51,0,0,0-.2-.21.61.61,0,0,0-.3-.08.55.55,0,0,0-.29.08.53.53,0,0,0-.21.21.72.72,0,0,0-.07.33.67.67,0,0,0,.07.33.56.56,0,0,0,.21.22.54.54,0,0,0,.29.07A.6.6,0,0,0,40.17,32.5Z"/><path class="cls-1" d="M43.28,32.74h-.21l-.82-1.25v1.25h-.2V31.17h.2l.82,1.24V31.17h.21Z"/><path class="cls-1" d="M45,32.7a.43.43,0,0,1-.19-.16.35.35,0,0,1-.08-.22h.22a.31.31,0,0,0,.09.18.34.34,0,0,0,.23.08.37.37,0,0,0,.23-.07.25.25,0,0,0,0-.34.32.32,0,0,0-.12-.08l-.2-.07a.92.92,0,0,1-.25-.08.38.38,0,0,1-.16-.12.36.36,0,0,1-.07-.24.34.34,0,0,1,.07-.22A.4.4,0,0,1,45,31.2a.76.76,0,0,1,.27-.05.57.57,0,0,1,.36.11.41.41,0,0,1,.16.29h-.23a.21.21,0,0,0-.09-.16.36.36,0,0,0-.22-.06.37.37,0,0,0-.21.06.26.26,0,0,0-.08.19.24.24,0,0,0,0,.14.36.36,0,0,0,.12.08l.2.06.25.09a.45.45,0,0,1,.16.12.43.43,0,0,1,.06.24.37.37,0,0,1-.06.21.42.42,0,0,1-.18.17.58.58,0,0,1-.28.06A.76.76,0,0,1,45,32.7Z"/><path d="M6.44,29H4.94L1.56,23.92V29H.06V21.57h1.5l3.38,5.12V21.57h1.5Z"/><path d="M9.24,22.79v1.87h2.51v1.18H9.24v2h2.83V29H7.75V21.57h4.32v1.22Z"/><path d="M18.34,21.58v1.21h-2V29H14.86V22.79h-2V21.58Z"/><path d="M24.46,23.82a1.73,1.73,0,0,0-.71-.71,2.08,2.08,0,0,0-1-.25,2.28,2.28,0,0,0-1.18.3,2.08,2.08,0,0,0-.8.86,2.75,2.75,0,0,0-.29,1.28,2.71,2.71,0,0,0,.3,1.3,2,2,0,0,0,.81.85,2.42,2.42,0,0,0,1.22.3,2.12,2.12,0,0,0,1.4-.45A2.16,2.16,0,0,0,24.88,26H22.32V24.89h4v1.3a3.61,3.61,0,0,1-1.91,2.51,3.8,3.8,0,0,1-1.73.4,4,4,0,0,1-1.95-.49,3.49,3.49,0,0,1-1.37-1.35,4.19,4.19,0,0,1,0-3.93A3.51,3.51,0,0,1,20.77,22a3.93,3.93,0,0,1,1.94-.48,3.82,3.82,0,0,1,2.18.61,3.16,3.16,0,0,1,1.29,1.72Z"/><path d="M28.8,22.79v1.87h2.51v1.18H28.8v2h2.83V29H27.31V21.57h4.32v1.22Z"/><path d="M37.39,27.61h-3L33.94,29H32.37l2.68-7.46h1.74L39.47,29H37.89ZM37,26.42,35.91,23.3l-1.08,3.12Z"/><path d="M44.15,29l-1.64-2.9H41.8V29H40.31V21.58h2.8a3.19,3.19,0,0,1,1.47.31,2.08,2.08,0,0,1,.91.82,2.26,2.26,0,0,1,.31,1.16A2.17,2.17,0,0,1,44.1,26l1.78,3ZM41.8,25h1.25a1.23,1.23,0,0,0,.91-.3,1.23,1.23,0,0,0,0-1.61,1.27,1.27,0,0,0-.91-.28H41.8Z"/><polygon class="cls-1" points="20.07 2.69 25.61 2.69 28 6.84 29.56 4.15 27.16 0 18.52 0 14.2 7.48 9.92 15.37 13.03 15.37 17.31 7.48 20.07 2.69"/><polygon points="32.86 0.08 30.51 4.15 30.51 4.15 28 8.51 28 8.51 25.61 12.67 20.07 12.67 17.68 8.53 16.18 11.31 18.52 15.37 27.16 15.37 35.97 0.08 32.86 0.08"/></g></g></svg>