<svg xmlns="http://www.w3.org/2000/svg" viewBox="0 0 82.13 27.07"><defs><style>.cls-1,.cls-4{fill:#888;}.cls-2{font-size:22.46px;font-family:Bahnschrift_700.000wght_80.000wdth, Bahnschrift;}.cls-3{letter-spacing:-0.01em;}.cls-4{font-size:4.05px;font-family:Bahnschrift_532.000wght_80.000wdth, Bahnschrift;letter-spacing:0.52em;}.cls-5{letter-spacing:0.53em;}.cls-6{letter-spacing:0.54em;}.cls-7{letter-spacing:0.53em;}.cls-8{letter-spacing:0.54em;}.cls-9{letter-spacing:0.51em;}.cls-10{letter-spacing:0.52em;}.cls-11{letter-spacing:0.56em;}</style></defs><g id="Layer_2" data-name="Layer 2"><g id="Layer_1-2" data-name="Layer 1"><path d="M0,12.32a13.06,13.06,0,0,1,9.11,3.83A13.07,13.07,0,0,1,13,25.28H0Z"/><path class="cls-1" d="M0,2.51v8.71H0a14,14,0,0,1,3.84.57V6.37h15v15H13.49a14.17,14.17,0,0,1,.57,3.85v0h8.7V2.51Z"/><text class="cls-2" transform="translate(28.83 19.2)"><tspan class="cls-3">SH</tspan><tspan x="20.76" y="0">ARP</tspan></text><text class="cls-4" transform="translate(29.58 25.97)">C<tspan class="cls-5" x="3.96" y="0">O</tspan><tspan class="cls-6" x="8.09" y="0">MM</tspan><tspan class="cls-7" x="17.31" y="0">U</tspan><tspan class="cls-8" x="21.32" y="0">NI</tspan><tspan class="cls-9" x="28.54" y="0">C</tspan><tspan class="cls-10" x="32.46" y="0">A</tspan><tspan class="cls-11" x="36.53" y="0">T</tspan><tspan class="cls-8" x="40.3" y="0">I</tspan><tspan class="cls-5" x="43.32" y="0">O</tspan><tspan class="cls-8" x="47.44" y="0">N</tspan></text></g></g></svg>