<svg xmlns="http://www.w3.org/2000/svg" viewBox="0 0 60.89 32.86"><defs><style>.cls-1{fill:#979797;}</style></defs><g id="Layer_2" data-name="Layer 2"><g id="Layer_1-2" data-name="Layer 1"><path class="cls-1" d="M21.26,12.72a13,13,0,0,0,2.1,3.79h-2.1A15,15,0,0,1,21.26,0h2.1a13.48,13.48,0,0,0-2.1,3.79,13.33,13.33,0,0,0,0,8.93Z"/><path class="cls-1" d="M42.1,8.26A8.26,8.26,0,0,1,26,10.81H27.8a6.56,6.56,0,1,0,0-5.1H26A8.26,8.26,0,0,1,42.1,8.26Z"/><path class="cls-1" d="M27.8,9.11H23.93a9.88,9.88,0,0,0,1.66,4.71,10.05,10.05,0,0,0,2.7,2.7H25.63l0-.05A11.62,11.62,0,0,1,25.59,0l0,0h2.66a10.05,10.05,0,0,0-2.7,2.7,9.88,9.88,0,0,0-1.66,4.71H27.8v1.7Z"/><path d="M3.83,27.21a4.15,4.15,0,0,1-1.52-.27,3.67,3.67,0,0,1-1.22-.77A3.63,3.63,0,0,1,0,23.52a3.67,3.67,0,0,1,.29-1.47,3.41,3.41,0,0,1,.81-1.17,3.52,3.52,0,0,1,1.22-.77,4,4,0,0,1,1.52-.28,4,4,0,0,1,1.61.31A3.15,3.15,0,0,1,6.68,21l-.86.81a2.76,2.76,0,0,0-.88-.63,2.58,2.58,0,0,0-1-.21,2.7,2.7,0,0,0-1,.19,2.3,2.3,0,0,0-.81.52,2.48,2.48,0,0,0-.53.8,2.56,2.56,0,0,0-.2,1,2.61,2.61,0,0,0,.2,1,2.72,2.72,0,0,0,.53.8,2.45,2.45,0,0,0,.81.52,2.9,2.9,0,0,0,1,.18,2.58,2.58,0,0,0,1-.21,2.64,2.64,0,0,0,.88-.64l.86.81a3.19,3.19,0,0,1-1.23.91A4.18,4.18,0,0,1,3.83,27.21Z"/><path d="M9.29,26h4.05v1.13H8V19.94H13.2v1.12H9.29Zm-.1-3.06h3.57V24H9.19Z"/><path d="M18.2,27.21a4.3,4.3,0,0,1-1.54-.27,3.84,3.84,0,0,1-1.24-.78A3.55,3.55,0,0,1,14.61,25a3.65,3.65,0,0,1-.28-1.46,3.74,3.74,0,0,1,.28-1.47,3.62,3.62,0,0,1,.81-1.17,3.71,3.71,0,0,1,1.23-.77,4.32,4.32,0,0,1,1.55-.28,4.09,4.09,0,0,1,1.54.28,3.51,3.51,0,0,1,2,1.94,3.74,3.74,0,0,1,.28,1.47A3.67,3.67,0,0,1,21.77,25a3.56,3.56,0,0,1-2,2A4.3,4.3,0,0,1,18.2,27.21Zm0-1.17a2.7,2.7,0,0,0,1-.18,2.38,2.38,0,0,0,1.32-1.32,2.61,2.61,0,0,0,.19-1,2.75,2.75,0,0,0-.18-1,2.35,2.35,0,0,0-1.33-1.32,2.51,2.51,0,0,0-1-.19,2.59,2.59,0,0,0-1,.19,2.31,2.31,0,0,0-.8.52,2.57,2.57,0,0,0,0,3.62,2.2,2.2,0,0,0,.8.53A2.79,2.79,0,0,0,18.2,26Z"/><path d="M29.61,27.21a4.17,4.17,0,0,1-1.53-.27,3.53,3.53,0,0,1-1.21-.77A3.62,3.62,0,0,1,26.06,25a3.76,3.76,0,0,1-.29-1.48,3.67,3.67,0,0,1,.29-1.47,3.41,3.41,0,0,1,.81-1.17,3.61,3.61,0,0,1,1.22-.77,4,4,0,0,1,1.53-.28,4.05,4.05,0,0,1,1.61.31,3.3,3.3,0,0,1,1.23.89l-.87.81a2.65,2.65,0,0,0-.88-.63,2.53,2.53,0,0,0-1-.21,2.63,2.63,0,0,0-1,.19,2.3,2.3,0,0,0-.81.52,2.36,2.36,0,0,0-.54.8,2.56,2.56,0,0,0-.19,1,2.61,2.61,0,0,0,.19,1,2.57,2.57,0,0,0,.54.8,2.45,2.45,0,0,0,.81.52,2.82,2.82,0,0,0,1,.18,2.52,2.52,0,0,0,1.91-.85l.87.81a3.35,3.35,0,0,1-1.23.91A4.25,4.25,0,0,1,29.61,27.21Z"/><path d="M33.74,27.11V19.94h1.33v6h3.75v1.13Z"/><path d="M43,27.21a3.09,3.09,0,0,1-2.3-.83A3.23,3.23,0,0,1,39.81,24v-4h1.34v4a2.26,2.26,0,0,0,.47,1.61A1.76,1.76,0,0,0,43,26a1.72,1.72,0,0,0,1.34-.5,2.26,2.26,0,0,0,.47-1.61v-4H46.1v4a3.23,3.23,0,0,1-.84,2.41A3.12,3.12,0,0,1,43,27.21Z"/><path d="M48,27.11V19.94h3.37a3.28,3.28,0,0,1,2,.5A1.62,1.62,0,0,1,54,21.8a1.73,1.73,0,0,1-.27,1,1.8,1.8,0,0,1-.71.63,2.26,2.26,0,0,1-1,.22l.18-.37a2.53,2.53,0,0,1,1.09.22,1.76,1.76,0,0,1,.76.64,1.9,1.9,0,0,1,.28,1,1.68,1.68,0,0,1-.71,1.44,3.5,3.5,0,0,1-2.08.51Zm1.33-1.05h2.17a2.18,2.18,0,0,0,1.13-.24A.86.86,0,0,0,53,25a.83.83,0,0,0-.4-.78A2.08,2.08,0,0,0,51.47,24H49.2V23h2a1.93,1.93,0,0,0,1.07-.25.81.81,0,0,0,.37-.73.82.82,0,0,0-.37-.75A1.93,1.93,0,0,0,51.19,21H49.3Z"/><path d="M58,27.21a5.3,5.3,0,0,1-1.6-.24,3.57,3.57,0,0,1-1.22-.62l.46-1a3.78,3.78,0,0,0,1.06.56,3.92,3.92,0,0,0,1.3.23,2.9,2.9,0,0,0,.92-.13,1.08,1.08,0,0,0,.51-.33.75.75,0,0,0,.16-.48.65.65,0,0,0-.23-.52,1.68,1.68,0,0,0-.61-.32c-.25-.08-.53-.15-.83-.22a7.79,7.79,0,0,1-.92-.24,4.16,4.16,0,0,1-.83-.36,1.81,1.81,0,0,1-.61-.59,1.79,1.79,0,0,1-.23-.94,2,2,0,0,1,.31-1.08,2.18,2.18,0,0,1,.95-.77,3.86,3.86,0,0,1,1.63-.3,5.06,5.06,0,0,1,1.28.17,3.72,3.72,0,0,1,1.11.47l-.42,1a3.94,3.94,0,0,0-1-.42,3.86,3.86,0,0,0-1-.14,2.5,2.5,0,0,0-.89.13,1.06,1.06,0,0,0-.51.36.77.77,0,0,0-.16.48.67.67,0,0,0,.23.53,1.67,1.67,0,0,0,.61.31c.25.08.52.15.83.22s.61.15.91.24a3.65,3.65,0,0,1,.83.36,1.61,1.61,0,0,1,.84,1.51,1.9,1.9,0,0,1-.31,1.06,2.1,2.1,0,0,1-1,.78A3.87,3.87,0,0,1,58,27.21Z"/><path class="cls-1" d="M15.85,32.42h1.42v.4H15.38V30.3h1.84v.4H15.85Zm0-1.07h1.25v.38H15.81Z"/><path class="cls-1" d="M20.07,32.82V30.7h-.84v-.4h2.14v.4h-.83v2.12Z"/><path class="cls-1" d="M24,32.82h-.46V30.3H24Zm1.34-1.08H23.92v-.4h1.37Zm0-1.44h.47v2.52h-.47Z"/><path class="cls-1" d="M28.16,32.82V30.3h.47v2.52Z"/><path class="cls-1" d="M32.25,32.86a1.53,1.53,0,0,1-.54-.1,1.48,1.48,0,0,1-.44-.27,1.34,1.34,0,0,1-.28-.42,1.29,1.29,0,0,1,.28-1.43,1.39,1.39,0,0,1,.43-.28,1.63,1.63,0,0,1,.55-.09,1.61,1.61,0,0,1,.54.09,1.57,1.57,0,0,1,.43.27,1.42,1.42,0,0,1,.28.41,1.4,1.4,0,0,1,0,1,1.42,1.42,0,0,1-.28.41,1.21,1.21,0,0,1-.43.27A1.62,1.62,0,0,1,32.25,32.86Zm0-.41a1,1,0,0,0,.35-.07.84.84,0,0,0,.28-.18.75.75,0,0,0,.18-.28.86.86,0,0,0,.07-.36,1,1,0,0,0-.25-.64.86.86,0,0,0-.63-.24,1,1,0,0,0-.36.06.77.77,0,0,0-.28.19.92.92,0,0,0-.19.28,1.05,1.05,0,0,0,0,.7,1,1,0,0,0,.19.29.75.75,0,0,0,.28.18A1,1,0,0,0,32.25,32.45Z"/><path class="cls-1" d="M35.86,32.82V30.3h1a1.43,1.43,0,0,1,.58.11.81.81,0,0,1,.37.31.9.9,0,0,1,.13.48.89.89,0,0,1-.13.47.81.81,0,0,1-.37.31,1.28,1.28,0,0,1-.58.11h-.77l.21-.21v.94Zm.47-.89-.21-.23h.75a.77.77,0,0,0,.47-.13.53.53,0,0,0,0-.74.71.71,0,0,0-.47-.13h-.75l.21-.23Z"/><path class="cls-1" d="M40.23,32.82V30.3h.47v2.52Z"/><path class="cls-1" d="M42.78,32.82l1.14-2.52h.46l1.13,2.52H45l-1-2.27h.19l-1,2.27Zm.52-.58.13-.37h1.36l.13.37Z"/></g></g></svg>