<svg xmlns="http://www.w3.org/2000/svg" viewBox="0 0 33.79 30.38"><defs><style>.cls-1{fill:#252525;}.cls-2{fill:#b9b9b9;}</style></defs><g id="Layer_2" data-name="Layer 2"><g id="Layer_1-2" data-name="Layer 1"><path class="cls-1" d="M3.32,26v.56H2.86A3,3,0,0,1,.91,26a2.9,2.9,0,0,1-.84-2.36,2.85,2.85,0,0,1,.84-2.34,3,3,0,0,1,1.95-.53h.46v.56H2.86a2.52,2.52,0,0,0-1.6.4,2.12,2.12,0,0,0-.62,1.64H3v.55H.64a2.1,2.1,0,0,0,.62,1.64,2.52,2.52,0,0,0,1.6.4Z"/><path class="cls-1" d="M5.74,22.68h.63L7.86,26s0,0,0,0l1.49-3.36H10L8.42,26.27a.56.56,0,0,1-.22.26.59.59,0,0,1-.32.09.63.63,0,0,1-.33-.09.56.56,0,0,1-.22-.26L5.81,22.84Z"/><path class="cls-1" d="M13.31,25.42l2.13-1.9a2.11,2.11,0,0,0-.31-.21,1.48,1.48,0,0,0-.62-.14,1.45,1.45,0,0,0-1.44,1.44,1.43,1.43,0,0,0,.24.81m2.09,1a2,2,0,0,1-.89.21,2,2,0,0,1,0-4,2,2,0,0,1,.87.19,2.12,2.12,0,0,1,.7.56.26.26,0,0,1,.06.21.27.27,0,0,1-.11.2l-2.3,2.06a1.4,1.4,0,0,0,.78.23,1.43,1.43,0,0,0,.64-.15,1.48,1.48,0,0,0,.51-.42l.45.35a2.14,2.14,0,0,1-.71.59"/><path class="cls-1" d="M19,22.68h.58v.26l.17-.11a1.89,1.89,0,0,1,.92-.24,1.83,1.83,0,0,1,1.38.6,2,2,0,0,1,.57,1.42v1.92h-.57V24.61a1.42,1.42,0,0,0-.41-1,1.31,1.31,0,0,0-1.61-.25,1.15,1.15,0,0,0-.45.4v2.79H19Z"/><path class="cls-1" d="M25.57,23.25v-.57h.59v-1.9h.57v1.9H27.9v.56H26.73v1.55a2.16,2.16,0,0,0,.11.84.79.79,0,0,0,.77.35h.29v.58h-.29c-.65,0-1.08-.17-1.27-.52a2.88,2.88,0,0,1-.18-1.25V23.25Z"/><path class="cls-1" d="M33.51,22.68v.58H31.85a1.07,1.07,0,0,0-.53.11.44.44,0,0,0-.28.42c0,.16.12.29.35.38a4.46,4.46,0,0,0,.77.15,4.28,4.28,0,0,1,1.12.27.86.86,0,0,1,.5.84.94.94,0,0,1-.48.85,1.77,1.77,0,0,1-1,.25H30.54V26h1.77a1.64,1.64,0,0,0,.58-.09.45.45,0,0,0,.31-.43c0-.17-.11-.29-.34-.38a5.23,5.23,0,0,0-.78-.16A3.9,3.9,0,0,1,31,24.63a.87.87,0,0,1-.51-.84A1,1,0,0,1,30.9,23a1.61,1.61,0,0,1,1-.27Z"/><path class="cls-1" d="M16.52,6.93l-1.4-1.4A1.9,1.9,0,0,0,13.73,5a1.92,1.92,0,0,0-1.4.57,2,2,0,0,0-.65,1.53,1.93,1.93,0,0,0,.6,1.32A1.92,1.92,0,0,0,13.6,9a2,2,0,0,0,1.53-.64Zm.86-.86-.86.86.93.93-1.4,1.39a3.26,3.26,0,0,1-4.64,0,3.13,3.13,0,0,1-1-2.32,3.13,3.13,0,0,1,1-2.32,3,3,0,0,1,2.28-.93,3.25,3.25,0,0,1,2.29,1Z"/><path class="cls-2" d="M17.37,6.08l1.4-1.4a1.93,1.93,0,0,0,.58-1.4,1.87,1.87,0,0,0-.58-1.39,1.94,1.94,0,0,0-2.85,0A1.94,1.94,0,0,0,16,4.68Zm.86.86-.86-.86L16.44,7,15.05,5.61a3.18,3.18,0,0,1-1-2.33,3.17,3.17,0,0,1,1-2.32A3.3,3.3,0,0,1,19.7,1a3,3,0,0,1,.92,2.29,3.18,3.18,0,0,1-1,2.29Z"/><path class="cls-1" d="M18.24,7l1.4,1.4A1.88,1.88,0,0,0,21,9a1.9,1.9,0,0,0,1.39-.57,2,2,0,0,0,.65-1.53,1.93,1.93,0,0,0-.6-1.32A1.93,1.93,0,0,0,21.16,5a2,2,0,0,0-1.52.65Zm-.86.86L18.24,7l-.93-.92,1.4-1.4A3.29,3.29,0,0,1,24.32,7a3.18,3.18,0,0,1-1,2.33,3,3,0,0,1-2.29.92,3.18,3.18,0,0,1-2.29-1Z"/><path class="cls-2" d="M1.45,16H3.63a2.11,2.11,0,0,0,1.54-.64,2.09,2.09,0,0,0,.64-1.54,2.22,2.22,0,0,0-.68-1.7,2.16,2.16,0,0,0-1.5-.56,2.13,2.13,0,0,0-1.5.57,2.16,2.16,0,0,0-.68,1.69Zm0,1.34v2.23H0V13.82a3.51,3.51,0,0,1,1.07-2.57,3.5,3.5,0,0,1,2.56-1.06,3.5,3.5,0,0,1,2.56,1.06,3.51,3.51,0,0,1,1.07,2.57,3.35,3.35,0,0,1-1.07,2.51,3.56,3.56,0,0,1-2.56,1Z"/><path class="cls-2" d="M12.09,15a1.66,1.66,0,0,0-1.24-.53,1.68,1.68,0,0,0-.83.21,1.73,1.73,0,0,0-.53.44v3.89l-1.44.52V13.2H9.49v.71a2.58,2.58,0,0,1,1.88-.85,2.45,2.45,0,0,1,1.74.75Z"/><path class="cls-2" d="M17.91,15.07a1.69,1.69,0,0,0-1.33-.64,2,2,0,0,0-1.36.53,1.94,1.94,0,0,0,0,2.84,1.92,1.92,0,0,0,1.35.53,1.67,1.67,0,0,0,1.34-.63Zm0-1.87h1.45v5.85l-1.45.52V19.1a2.78,2.78,0,0,1-1.74.6,2.84,2.84,0,0,1-2.08-.88,3.34,3.34,0,0,1-.93-2.44A3.34,3.34,0,0,1,14.08,14a2.87,2.87,0,0,1,3.83-.29Z"/><path class="cls-2" d="M22,13.91a2.73,2.73,0,0,1,1.49-.81,2.27,2.27,0,0,1,1.49.24,2.8,2.8,0,0,1,1.15,1.14,3.92,3.92,0,0,1,.45,1.9v3.19H25.12V16.38a1.81,1.81,0,0,0-.53-1.33,1.65,1.65,0,0,0-1.24-.54,1.68,1.68,0,0,0-.83.21,1.86,1.86,0,0,0-.53.44v4.41H20.55V13.2H22Z"/><path class="cls-2" d="M32.33,15.07A1.71,1.71,0,0,0,31,14.43a2,2,0,0,0-1.35.53,1.94,1.94,0,0,0,0,2.84,1.9,1.9,0,0,0,1.35.53,1.67,1.67,0,0,0,1.34-.63Zm0-1.87h1.45v5.86l-1.46.51V19.1a2.8,2.8,0,0,1-1.74.6,2.84,2.84,0,0,1-2.08-.88,3.34,3.34,0,0,1-.93-2.44A3.34,3.34,0,0,1,28.5,14a2.87,2.87,0,0,1,3.83-.29Z"/><polygon points="0.2 28.43 0.2 29.97 1.14 29.97 1.14 29.84 0.35 29.84 0.35 29.23 1 29.23 1 29.09 0.35 29.09 0.35 28.56 1.08 28.56 1.08 28.43 0.2 28.43"/><path d="M1.8,29.48l-.1.12a1.47,1.47,0,0,1-.1.13.83.83,0,0,0-.08.12L1.46,30H1.31a2.49,2.49,0,0,1,.2-.32l.21-.28-.39-.55H1.5l.3.43.3-.43h.16l-.39.55L2,29.5l.11.15.11.15.09.17H2.14l-.07-.11L2,29.74l-.1-.13-.09-.13"/><path d="M2.54,30v-1.7l.15,0v.6l.14,0H3a.48.48,0,0,1,.22,0,.3.3,0,0,1,.14.1.53.53,0,0,1,.08.17,1.5,1.5,0,0,1,0,.22V30H3.29v-.6a1.15,1.15,0,0,0,0-.2A.26.26,0,0,0,3.22,29a.2.2,0,0,0-.1-.08l-.16,0H2.8l-.07,0h0v1Z"/><path d="M4,30H3.8V28.82H4Zm0-1.5a.13.13,0,0,1,0,.09.09.09,0,0,1-.07,0,.11.11,0,0,1-.08,0,.12.12,0,0,1,0-.09.1.1,0,0,1,.11-.11.09.09,0,0,1,.07,0,.12.12,0,0,1,0,.08"/><path d="M4.48,29.83a.22.22,0,0,0,.1,0h.17a.41.41,0,0,0,.3-.12.5.5,0,0,0,.11-.34,1.11,1.11,0,0,0,0-.19.27.27,0,0,0-.07-.14A.23.23,0,0,0,5,29a.48.48,0,0,0-.18,0h-.1L4.6,29l-.07,0,0,0Zm0-.94.12-.06a.54.54,0,0,1,.19,0,.56.56,0,0,1,.23,0,.61.61,0,0,1,.16.12.69.69,0,0,1,.1.19,1,1,0,0,1,0,.25.69.69,0,0,1,0,.25.54.54,0,0,1-.11.18A.36.36,0,0,1,5,30a.59.59,0,0,1-.23.05.85.85,0,0,1-.25,0,.61.61,0,0,1-.17,0V28.27l.15,0Z"/><path d="M5.77,30H5.63V28.82h.14Zm0-1.5a.12.12,0,0,1,0,.09.09.09,0,0,1-.07,0,.11.11,0,0,1-.08,0,.12.12,0,0,1,0-.09.1.1,0,0,1,.11-.11.09.09,0,0,1,.07,0,.11.11,0,0,1,0,.08"/><path d="M6.29,28.82h.45v.12H6.29v.61a.71.71,0,0,0,0,.16.31.31,0,0,0,0,.1l.08,0h.09l.15,0,.09,0,0,.12-.11,0-.17,0a.4.4,0,0,1-.17,0,.25.25,0,0,1-.12-.08.3.3,0,0,1-.06-.14,1.12,1.12,0,0,1,0-.2V28.48l.15,0Z"/><path d="M7.15,30H7V28.82h.14Zm0-1.5a.12.12,0,0,1,0,.09.12.12,0,0,1-.16,0,.12.12,0,0,1,0-.09.11.11,0,0,1,0-.08.12.12,0,0,1,.16,0,.11.11,0,0,1,0,.08"/><path d="M8.36,29.4a.54.54,0,0,0-.1-.35.36.36,0,0,0-.54,0,.54.54,0,0,0-.1.35.53.53,0,0,0,.1.34.36.36,0,0,0,.54,0,.53.53,0,0,0,.1-.34m.15,0a.61.61,0,0,1,0,.24.57.57,0,0,1-.1.19A.66.66,0,0,1,8.2,30a.57.57,0,0,1-.42,0,.66.66,0,0,1-.17-.12.57.57,0,0,1-.1-.19.61.61,0,0,1,0-.24.66.66,0,0,1,0-.25.57.57,0,0,1,.1-.19.66.66,0,0,1,.17-.12.47.47,0,0,1,.42,0,.66.66,0,0,1,.17.12.57.57,0,0,1,.1.19.66.66,0,0,1,0,.25"/><path d="M8.83,28.86l.17,0,.26,0a.48.48,0,0,1,.22,0,.3.3,0,0,1,.14.1.53.53,0,0,1,.08.17,1.5,1.5,0,0,1,0,.22V30H9.57v-.6a1.15,1.15,0,0,0,0-.2A.26.26,0,0,0,9.5,29,.2.2,0,0,0,9.4,29l-.16,0H9.07L9,29v1H8.83Z"/><rect x="10.62" y="28.23" width="0.14" height="2.15"/><path d="M12.33,30a.87.87,0,0,1-.28-.05.69.69,0,0,1-.22-.16.87.87,0,0,1-.15-.25.9.9,0,0,1,0-.34,1,1,0,0,1,.06-.35,1,1,0,0,1,.15-.25.7.7,0,0,1,.23-.15.62.62,0,0,1,.27-.05h.16l.12,0,.09,0,.06,0,0,.13-.14-.07a.66.66,0,0,0-.21,0,.62.62,0,0,0-.25,0,.45.45,0,0,0-.19.14.7.7,0,0,0-.11.21,1.12,1.12,0,0,0,0,.27,1.27,1.27,0,0,0,0,.28.7.7,0,0,0,.11.21.59.59,0,0,0,.18.13.52.52,0,0,0,.23.05.9.9,0,0,0,.25,0l.15-.06,0,.13,0,0-.1,0-.13,0h-.17"/><path d="M13.86,29.4a.61.61,0,0,0-.1-.35.34.34,0,0,0-.27-.12.32.32,0,0,0-.27.12.54.54,0,0,0-.1.35.53.53,0,0,0,.1.34.32.32,0,0,0,.27.12.34.34,0,0,0,.27-.12.6.6,0,0,0,.1-.34m.15,0a.61.61,0,0,1,0,.24.45.45,0,0,1-.11.19.48.48,0,0,1-.16.12.52.52,0,0,1-.21,0,.54.54,0,0,1-.22,0,.61.61,0,0,1-.16-.12.59.59,0,0,1-.11-.19.86.86,0,0,1,0-.24.93.93,0,0,1,0-.25.59.59,0,0,1,.11-.19.61.61,0,0,1,.16-.12.54.54,0,0,1,.22-.05.54.54,0,0,1,.21.05.48.48,0,0,1,.16.12.45.45,0,0,1,.11.19.66.66,0,0,1,0,.25"/><path d="M14.32,28.86l.17,0,.27,0a.48.48,0,0,1,.22,0,.36.36,0,0,1,.14.1.51.51,0,0,1,.07.17.78.78,0,0,1,0,.22V30h-.15v-.6a1.15,1.15,0,0,0,0-.2A.26.26,0,0,0,15,29a.25.25,0,0,0-.1-.08l-.16,0h-.18l-.09,0v1h-.15Z"/><path d="M16,28.25h.15l.07,0,0,.12-.08,0-.12,0a.29.29,0,0,0-.22.08.44.44,0,0,0-.06.25v.12h.46v.12h-.46v1h-.14V28.7a.48.48,0,0,1,.1-.34.38.38,0,0,1,.32-.11"/><path d="M17.16,29.3a.47.47,0,0,0-.08-.28.29.29,0,0,0-.23-.1.35.35,0,0,0-.14,0,.43.43,0,0,0-.1.09.24.24,0,0,0-.07.12.32.32,0,0,0,0,.14Zm-.81.09a.68.68,0,0,1,0-.26.52.52,0,0,1,.12-.19.36.36,0,0,1,.16-.11.52.52,0,0,1,.18,0,.45.45,0,0,1,.34.13.63.63,0,0,1,.12.43v.06H16.5a.54.54,0,0,0,.11.33.4.4,0,0,0,.31.11l.18,0,.1,0,0,.13-.12,0-.2,0a.62.62,0,0,1-.25,0,.35.35,0,0,1-.18-.13.39.39,0,0,1-.1-.19.88.88,0,0,1,0-.24"/><path d="M18,28.8h.13l.08,0,0,.13a.13.13,0,0,0-.08,0h-.29l-.07,0v1h-.15v-1.1l.16-.05.24,0"/><path d="M19.21,29.3a.41.41,0,0,0-.09-.28.27.27,0,0,0-.22-.1.32.32,0,0,0-.14,0,.48.48,0,0,0-.11.09.35.35,0,0,0-.07.12l0,.14Zm-.81.09a.65.65,0,0,1,.15-.45.42.42,0,0,1,.16-.11.58.58,0,0,1,.19,0,.42.42,0,0,1,.33.13.58.58,0,0,1,.13.43v0a0,0,0,0,1,0,0h-.8a.54.54,0,0,0,.1.33.42.42,0,0,0,.31.11l.19,0,.1,0,0,.13-.12,0L19,30a.68.68,0,0,1-.26,0,.46.46,0,0,1-.18-.13.48.48,0,0,1-.09-.19.88.88,0,0,1,0-.24"/><path d="M19.68,28.86l.17,0,.27,0a.48.48,0,0,1,.22,0,.36.36,0,0,1,.14.1.51.51,0,0,1,.07.17.78.78,0,0,1,0,.22V30h-.14v-.6a1,1,0,0,0,0-.2.38.38,0,0,0-.05-.14.25.25,0,0,0-.1-.08l-.17,0h-.17l-.1,0v1h-.14Z"/><path d="M21.42,30a.61.61,0,0,1-.24,0,.52.52,0,0,1-.17-.12.44.44,0,0,1-.1-.19.61.61,0,0,1,0-.24.66.66,0,0,1,0-.25A.69.69,0,0,1,21,29a.52.52,0,0,1,.17-.12.54.54,0,0,1,.22-.05l.18,0a.34.34,0,0,1,.12,0l0,.12-.1,0-.15,0a.38.38,0,0,0-.29.13.65.65,0,0,0-.07.54.37.37,0,0,0,.07.14.45.45,0,0,0,.13.1.5.5,0,0,0,.19,0l.16,0,.09,0,0,.13-.13,0a.47.47,0,0,1-.17,0"/><path d="M22.71,29.3a.47.47,0,0,0-.09-.28.29.29,0,0,0-.22-.1.29.29,0,0,0-.14,0,.48.48,0,0,0-.11.09.35.35,0,0,0-.07.12.32.32,0,0,0,0,.14Zm-.82.09a1,1,0,0,1,0-.26.69.69,0,0,1,.12-.19.42.42,0,0,1,.16-.11.58.58,0,0,1,.19,0,.42.42,0,0,1,.33.13.63.63,0,0,1,.12.43v.06h-.8a.48.48,0,0,0,.1.33.4.4,0,0,0,.31.11l.19,0,.1,0,0,.13-.11,0-.21,0a.62.62,0,0,1-.25,0,.46.46,0,0,1-.18-.13.49.49,0,0,1-.1-.19.88.88,0,0,1,0-.24"/><rect x="23.71" y="28.23" width="0.14" height="2.15"/><path d="M25.47,29.75a.77.77,0,0,0-.06-.15c0-.06-.06-.13-.1-.2a2.14,2.14,0,0,0-.1-.22l-.1-.22c0-.06-.06-.12-.09-.17L25,28.68c0,.19,0,.39,0,.61s0,.44,0,.68h-.15c0-.28,0-.55,0-.81s0-.5.07-.73H25a2,2,0,0,1,.14.26,2.1,2.1,0,0,1,.15.3c.06.1.1.21.15.31a2.86,2.86,0,0,1,.12.27l.13-.27c0-.1.09-.21.14-.31s.1-.21.15-.3l.14-.26h.13c0,.23.05.48.06.73s0,.53.05.81h-.15c0-.24,0-.47,0-.68s0-.42-.05-.61l-.06.11L26,29a1.47,1.47,0,0,0-.1.22c0,.07-.07.15-.11.22l-.09.2a.77.77,0,0,0-.06.15Z"/><path d="M27.43,29.3a.47.47,0,0,0-.08-.28.29.29,0,0,0-.23-.1A.35.35,0,0,0,27,29a.43.43,0,0,0-.1.09.35.35,0,0,0-.07.12.32.32,0,0,0,0,.14Zm-.81.09a1,1,0,0,1,0-.26.52.52,0,0,1,.12-.19.36.36,0,0,1,.16-.11.52.52,0,0,1,.18,0,.45.45,0,0,1,.34.13.63.63,0,0,1,.12.43v.06h-.81a.54.54,0,0,0,.11.33.39.39,0,0,0,.31.11l.18,0,.1,0,0,.13-.12,0-.2,0a.62.62,0,0,1-.25,0,.4.4,0,0,1-.18-.13.39.39,0,0,1-.1-.19.88.88,0,0,1,0-.24"/><path d="M28.65,29.3a.47.47,0,0,0-.08-.28.31.31,0,0,0-.23-.1.32.32,0,0,0-.14,0,.48.48,0,0,0-.11.09.35.35,0,0,0-.07.12l0,.14Zm-.81.09a.65.65,0,0,1,.15-.45.42.42,0,0,1,.16-.11.58.58,0,0,1,.19,0,.42.42,0,0,1,.33.13.58.58,0,0,1,.13.43v0s0,0,0,0H28a.54.54,0,0,0,.1.33.42.42,0,0,0,.31.11l.19,0,.1,0,0,.13-.12,0-.2,0a.68.68,0,0,1-.26,0,.46.46,0,0,1-.18-.13.48.48,0,0,1-.09-.19.88.88,0,0,1,0-.24"/><path d="M29.26,28.82h.45v.12h-.45v.61a.71.71,0,0,0,0,.16.31.31,0,0,0,.05.1l.07,0h.1l.15,0,.09,0,0,.12-.11,0-.17,0a.48.48,0,0,1-.18,0,.28.28,0,0,1-.11-.08.3.3,0,0,1-.06-.14,1.12,1.12,0,0,1,0-.2V28.48l.15,0Z"/><path d="M30.12,30H30V28.82h.14Zm0-1.5a.1.1,0,0,1,0,.09.09.09,0,0,1-.07,0,.11.11,0,0,1-.08,0,.12.12,0,0,1,0-.09.1.1,0,0,1,.11-.11.12.12,0,0,1,.11.11"/><path d="M30.5,28.86l.18,0,.26,0a.48.48,0,0,1,.22,0,.3.3,0,0,1,.14.1.53.53,0,0,1,.08.17,1.5,1.5,0,0,1,0,.22V30h-.15v-.6a1.15,1.15,0,0,0,0-.2.26.26,0,0,0-.06-.14.25.25,0,0,0-.1-.08l-.16,0h-.18l-.09,0v1H30.5Z"/><path d="M32.51,29l-.1,0h-.17a.41.41,0,0,0-.16,0,.27.27,0,0,0-.12.09.29.29,0,0,0-.08.14.57.57,0,0,0,0,.18.5.5,0,0,0,0,.19.47.47,0,0,0,.08.14.29.29,0,0,0,.12.07.27.27,0,0,0,.13,0,.55.55,0,0,0,.18,0l.12-.07Zm0,.88,0,0-.06,0-.09,0h-.11a.48.48,0,0,1-.2,0,.51.51,0,0,1-.16-.09.61.61,0,0,1-.11-.18.6.6,0,0,1,0-.25.85.85,0,0,1,0-.23.78.78,0,0,1,.11-.18.66.66,0,0,1,.17-.12.56.56,0,0,1,.23,0l.26,0,.16,0v1.05a.43.43,0,0,1-.14.36.58.58,0,0,1-.4.11h-.2l-.15,0,0-.13.15,0,.18,0a.47.47,0,0,0,.3-.08.34.34,0,0,0,.09-.27Z"/><path d="M33.27,29.87a.65.65,0,0,0,.21,0,.16.16,0,0,0,.08-.14.15.15,0,0,0,0-.08s0-.05,0-.06l-.08-.06-.14,0-.12-.06a.33.33,0,0,1-.1-.06.31.31,0,0,1-.07-.09.21.21,0,0,1,0-.12.28.28,0,0,1,.11-.23.42.42,0,0,1,.29-.08h.19l.11,0,0,.13-.09,0-.19,0h-.09l-.08,0s0,0-.05.06a.14.14,0,0,0,0,.07.19.19,0,0,0,0,.08.1.1,0,0,0,.05.06l.08.05.12,0,.12.05a.41.41,0,0,1,.11.07l.08.09a.29.29,0,0,1,0,.14.26.26,0,0,1-.12.23.51.51,0,0,1-.32.08L33,30l-.11,0,0-.13h0l.06,0,.09,0h.12"/></g></g></svg>