<svg xmlns="http://www.w3.org/2000/svg" viewBox="0 0 42.2 34.52"><defs><style>.cls-1{font-size:9.07px;font-family:Poppins-SemiBold, Poppins;font-weight:600;}.cls-1,.cls-3{fill:#2d2d2d;}.cls-2{font-size:4.17px;font-family:Poppins-Regular, Poppins;}.cls-4{fill:#e2e2e2;}.cls-5{fill:#999;}</style></defs><g id="Layer_2" data-name="Layer 2"><g id="Layer_1-2" data-name="Layer 1"><text class="cls-1" transform="translate(0 27.9)">HABESHA</text><text class="cls-2" transform="translate(29.96 32.14)">EXPAT</text><path class="cls-3" d="M23.74,19.18c5.25-1.95,8.4-6.52,7-10.22S24,3.84,18.77,5.79s-8.39,6.53-7,10.22S18.49,21.13,23.74,19.18ZM12.07,16.07c-1.26-3.39,1.59-7.57,6.36-9.34s9.66-.46,10.92,2.93S27.76,17.23,23,19,13.33,19.46,12.07,16.07Z"/><path class="cls-4" d="M22.75,6.49C19.92,1.28,14.64-1.33,11,.67S6.63,8.51,9.46,13.72s8.11,7.82,11.78,5.82S25.59,11.7,22.75,6.49ZM21.25,19.2c-3.36,1.83-8.17-.53-10.75-5.26S8.56,3.88,11.92,2.05s8.18.53,10.75,5.26S24.61,17.37,21.25,19.2Z"/><path class="cls-5" d="M15.91,5.55C10.24,4.12,4.82,6.2,3.82,10.19S6.58,18.58,12.25,20s11.08-.64,12.09-4.64S21.57,7,15.91,5.55Zm8.19,9.59c-.92,3.65-5.85,5.56-11,4.26s-8.58-5.32-7.65-9,5.85-5.56,11-4.26S25,11.48,24.1,15.14Z"/></g></g></svg>