<svg xmlns="http://www.w3.org/2000/svg" viewBox="0 0 53.84 31.82"><defs><style>.cls-1{font-size:11.17px;}.cls-1,.cls-4{font-family:FigtreeRoman-Bold, Figtree;font-weight:700;}.cls-2{letter-spacing:-0.04em;}.cls-3{letter-spacing:-0.04em;}.cls-4{font-size:3.49px;}.cls-4,.cls-6{fill:#a3a3a3;}.cls-5{letter-spacing:0.2em;}.cls-7{fill:#a0a0a0;}</style></defs><g id="Layer_2" data-name="Layer 2"><g id="Layer_1-2" data-name="Layer 1"><text class="cls-1" transform="translate(0 25.23)"><tspan class="cls-2">ADA</tspan><tspan class="cls-3" x="22.46" y="0">M</tspan><tspan class="cls-2" x="31.59" y="0">A</tspan><tspan class="cls-3" x="39.13" y="0">N</tspan><tspan x="47.31" y="0">T</tspan></text><text class="cls-4" transform="translate(6.09 31.05)"><tspan class="cls-5">INVESTEMENT PL</tspan><tspan x="38.89" y="0">C</tspan></text><polygon points="19.72 13.62 23.98 1.56 28.36 13.62 30.48 13.62 25.25 0 22.87 0 17.68 13.62 19.72 13.62"/><path class="cls-6" d="M26.52,7.64A14.83,14.83,0,0,1,33.4,9.69a16.08,16.08,0,0,0-8.12-3c-3.56-.1-6.49,1.66-8.72,5.24A14.28,14.28,0,0,1,19,9.9a12.9,12.9,0,0,1,7.53-2.26"/><polygon points="26.28 0 31.72 13.62 33.55 13.62 28.12 0 26.28 0"/><path class="cls-7" d="M36,13.62a1.27,1.27,0,1,1,1.27-1.27A1.27,1.27,0,0,1,36,13.62Zm0-2.35a1.09,1.09,0,1,0,1.08,1.08A1.08,1.08,0,0,0,36,11.27Z"/><path class="cls-7" d="M36.67,13.12h-.35l-.3-.61h-.21v.61h-.3V11.58h.6a.51.51,0,0,1,.37.14.45.45,0,0,1,.13.34.45.45,0,0,1-.08.26.48.48,0,0,1-.2.14Zm-.36-1.07a.18.18,0,0,0-.06-.14.21.21,0,0,0-.16-.06h-.28v.41h.28a.21.21,0,0,0,.16-.06A.2.2,0,0,0,36.31,12.05Z"/></g></g></svg>